<svg xmlns="http://www.w3.org/2000/svg" xmlns:xlink="http://www.w3.org/1999/xlink" viewBox="-13167 -414 48.896 36.909">
  <defs>
    <style>
      .cls-1 {
        fill: #bababa;
      }

      .cls-2 {
        clip-path: url(#clip-path);
      }

      .cls-3 {
        fill: #eab755;
      }

      .cls-4 {
        fill: #fff;
      }
    </style>
    <clipPath id="clip-path">
      <path id="Path_55" data-name="Path 55" class="cls-1" d="M0-57.891H48.9V-94.8H0Z" transform="translate(0 94.8)"/>
    </clipPath>
  </defs>
  <g id="Group_112" data-name="Group 112" transform="translate(-13167 -414)">
    <g id="Group_28" data-name="Group 28" class="cls-2" transform="translate(0 0)">
      <g id="Group_26" data-name="Group 26" transform="translate(8.364 13.819)">
        <path id="Path_53" data-name="Path 53" class="cls-3" d="M-6.05-30.823V-44.967l-3.858-5.507v22.95H-.124l2.32-3.3Zm21.412-.239a1.658,1.658,0,0,1-.783-1.393v-6.184a4.687,4.687,0,0,0-1.458-3.468,4.821,4.821,0,0,0-3.506-1.435,5.268,5.268,0,0,0-1.15.139L6.137-40.131h1.21q2.419,0,3.151,1.547L6.053-35.519h4.668v3.525a4.405,4.405,0,0,0,1.188,2.985,4.5,4.5,0,0,0,2.837,1.569l2.208-3.12a2.66,2.66,0,0,1-1.594-.5m-6.234.183a2.947,2.947,0,0,1-2.11-.841,2.712,2.712,0,0,1-.881-2.035v-1.764l-1.2.824a3.881,3.881,0,0,0-1.9,3.325,3.544,3.544,0,0,0,1.51,3.078,5.562,5.562,0,0,0,3.27.852,2.918,2.918,0,0,0,.783-.14l2.348-3.3ZM29.086-42.021a5.063,5.063,0,0,0-3.69-1.52,3.482,3.482,0,0,0-.894.112L22.154-40.1h1.621a2.884,2.884,0,0,1,2.111.878,2.867,2.867,0,0,1,.88,2.1v6.382l3.858-5.495v-2.12a4.971,4.971,0,0,0-1.537-3.668m-3.922,11.2a2.9,2.9,0,0,1-2.1-.867,2.828,2.828,0,0,1-.884-2.1V-44.967l-3.858-5.507v17.89a5.015,5.015,0,0,0,1.527,3.662,4.951,4.951,0,0,0,3.638,1.537,5.727,5.727,0,0,0,.972-.112l2.3-3.326Z" transform="translate(9.908 50.474)"/>
      </g>
      <g id="Group_27" data-name="Group 27" transform="translate(0 0)">
        <path id="Path_54" data-name="Path 54" class="cls-4" d="M-21.833-5.108a8.235,8.235,0,0,0-5.462-2.809l-2.28,3.271h.942a5,5,0,0,1,3.684,1.537A5.087,5.087,0,0,1-23.425.609V8.268a2.788,2.788,0,0,1-.978,2.069,3.268,3.268,0,0,1-2.32.922H-29.8l2.292,3.243a6.807,6.807,0,0,0,1.789.2,5.963,5.963,0,0,0,4.333-1.789,5.669,5.669,0,0,0,1.817-4.165V.749a8.448,8.448,0,0,0-2.266-5.856M-33.432.84V9.686a1.63,1.63,0,0,1-.726,1.372,2.641,2.641,0,0,1-1.594.532L-33.6,14.7a4.382,4.382,0,0,0,2.865-1.61,4.887,4.887,0,0,0,1.16-3.233V-4.7Zm31.056-3.7L-6.234-8.364V14.558h3.858ZM-12.383,2.593V-2.9l-3.858-5.465V14.558h3.858V5.948h3.84l2.31-3.354Z" transform="translate(35.752 8.364)"/>
      </g>
    </g>
  </g>
</svg>
