<?xml version="1.0" encoding="iso-8859-1"?>
<!-- Generator: Adobe Illustrator 16.0.0, SVG Export Plug-In . SVG Version: 6.00 Build 0)  -->
<!DOCTYPE svg PUBLIC "-//W3C//DTD SVG 1.1//EN" "http://www.w3.org/Graphics/SVG/1.1/DTD/svg11.dtd">
<svg version="1.1" id="Capa_1" xmlns="http://www.w3.org/2000/svg" xmlns:xlink="http://www.w3.org/1999/xlink" x="0px" y="0px"
	 width="31.646px" height="31.646px" viewBox="0 0 31.646 31.646" style="enable-background:new 0 0 31.646 31.646;"
	 xml:space="preserve" fill='#fff'>
<g>
	<g>
		<g>
			<path d="M10.769,18.414c-0.034-0.023-0.602-0.534-0.743-0.715c-0.138-0.183-0.404-0.231-0.543-0.304
				c-0.14-0.072-1.064-0.377-1.286-0.219c-0.219,0.158-0.521,0.254-0.638,0c-0.115-0.256-0.173-0.292-0.335-0.328
				c-0.162-0.036-0.081-0.229-0.092-0.399c-0.013-0.171-0.105-0.353-0.221-0.231c-0.116,0.122-0.51,0.438-0.567,0.278
				c-0.058-0.157-0.337-0.812,0.081-0.935c0.416-0.12,0.764-0.049,0.869,0.061c0.104,0.108,0.184,0.413,0.313,0.376
				c0.128-0.037,0.058-0.269,0.104-0.461c0.046-0.193,0.349-0.449,0.486-0.715c0.139-0.269,0.162-0.426,0.335-0.499
				c0.176-0.072,0.268-0.169,0.43-0.291c0.163-0.122,0.416-0.23,0.511-0.292c0.093-0.062,0.509-0.268,0.647-0.231
				c0.139,0.037,0.231-0.012,0.116-0.218c-0.116-0.206-0.266-0.826-0.486-1.104c-0.22-0.278-0.244-0.353-0.348-0.618
				C9.298,11.3,9.181,11.07,9.1,11.252s-0.254,0.425-0.347,0.194c-0.092-0.231-0.081-0.22-0.197-0.328
				c-0.115-0.109-0.209-0.134-0.37-0.183c-0.162-0.049-0.324,0.013-0.313,0.17c0.011,0.158-0.152,0.439-0.046,0.646
				c0.104,0.207,0.197,0.425,0.057,0.498c-0.138,0.072,0,0.51-0.138,0.497c-0.139-0.011-0.208,0.013-0.208-0.146
				c0-0.156,0.069-0.399-0.187-0.399c-0.254,0-0.405-0.133-0.59-0.268c-0.186-0.133-0.336-0.061-0.29-0.363
				c0.046-0.305-0.022-0.413,0.185-0.583c0.209-0.169,0.256-0.268,0.406-0.194c0.151,0.073,0.254,0.073,0.349-0.012
				c0.092-0.085,0.265-0.05,0.265-0.158c0-0.109-0.197-0.109-0.173-0.29c0.022-0.185,0.116-0.086,0.15-0.39
				c0.034-0.304-0.22-0.765-0.475-0.704C6.922,9.299,6.53,9.652,6.449,9.493C6.367,9.336,6.205,9.408,5.892,9.518
				c-0.313,0.11-1.61-0.108-1.702-0.219c0,0-0.221-0.157-0.337-0.072C3.738,9.312,3.274,9.275,3.135,9.252
				c-0.14-0.025-0.267,0.157-0.439,0.097C2.52,9.288,1.907,9.166,1.769,9.069c-0.141-0.098-0.35-0.098-0.44-0.146
				c-0.093-0.049-0.43-0.073-0.498,0.024c-0.07,0.097-0.325,0.266-0.453,0.388c-0.127,0.122-0.276,0.098-0.15,0.353
				c0.127,0.255-0.324,0.413-0.209,0.691c0.115,0.278-0.023,1.031,0.44,1.177c0.464,0.146,0.846,0.231,1.112,0.014
				c0.268-0.22,0.673-0.22,0.8,0.023s0.197,0.607,0.613,0.813c0.416,0.207,0.776,0.802,0.753,1.067
				c-0.022,0.268,0.013,1.153,0.439,1.663c0.43,0.51,0.87,1.434,0.903,1.214c0.035-0.219,0.035-0.438,0.129-0.279
				c0.091,0.158,0.335,0.644,0.729,0.729c0.395,0.085,0.592,0.109,0.741,0.256c0.15,0.146,0.279,0.23,0.44,0.304
				c0.162,0.072,0.556,0.292,0.637,0.437c0.082,0.146,0.047,0.34-0.035,0.559C7.64,18.575,7.547,18.793,7.662,19
				c0.117,0.206,0.36,0.801,0.558,0.934c0.197,0.135,0.392,0.353,0.346,0.656C8.52,20.893,8.3,22.192,8.323,22.484
				c0.024,0.29-0.265,1.249-0.034,1.638c0.231,0.388,0.627,0.51,0.8,0.46c0.173-0.047,0.035-0.061-0.047-0.242
				c-0.081-0.183-0.07-0.414,0.023-0.583c0.094-0.17,0.094-0.267,0.047-0.461s-0.023-0.304,0.092-0.449
				c0.117-0.146,0.603-0.534,0.754-0.704c0.149-0.17,1.101-1.336,1.228-1.433s0.416-0.328,0.51-0.691
				c0.093-0.363,0.428-1.08,0.197-1.263C11.661,18.573,10.804,18.438,10.769,18.414z"/>
		</g>
		<g>
			<path d="M13.085,8.17c0.066-0.129,0.226-0.452,0.312-0.629h-3.67C9.771,7.736,9.93,8.46,9.9,8.753
				c-0.035,0.34,0.07,0.219,0.162,0.353c0.093,0.134,0.07,0.341,0.012,0.497c-0.059,0.158-0.093,0.511,0.094,0.924
				c0.184,0.412,0.404,0.934,0.589,0.959c0.187,0.023,0.14,0.291,0.268,0.193c0.127-0.098,0.149-0.314,0.255-0.631
				c0.104-0.314,0.104-0.546,0.371-0.704s1.007-0.667,1.169-0.85c0.163-0.183,0.348-0.255,0.29-0.57
				C13.05,8.608,12.993,8.353,13.085,8.17z"/>
		</g>
		<g>
			<path d="M31.154,9.603c-0.139-0.097-0.972-0.764-1.332-0.679c-0.357,0.085-0.995-0.195-1.1-0.255
				c-0.104-0.061-0.96-0.324-1.412-0.34c-0.225-0.008-1.17-0.219-1.564-0.388c-0.395-0.171-0.729-1.008-1.482-0.874
				c-0.097,0.018-1.007,0.146-1.239,0.353c-0.23,0.207-0.336,0.448-0.463,0.497s-0.498,0.024-0.498,0.207
				c0,0.182,0.128,0.741-0.022,0.631c-0.151-0.109-0.302-0.364-0.37-0.169c-0.069,0.195-0.188,0.303-0.256,0.23
				s-0.418,0-0.463,0.121c-0.047,0.122-0.498,0.4-0.694,0.438c-0.197,0.036-0.279,0.133-0.383,0.182
				c-0.104,0.048-0.893,0.413-1.042,0.279c-0.151-0.133-0.197-0.048-0.29-0.024c0,0-0.278-0.049-0.451-0.267
				c-0.175-0.218-0.209-0.146-0.406-0.352c-0.196-0.206-0.243-0.412-0.439-0.327c-0.196,0.084-1.03,0.945-1.355,1.334
				c-0.323,0.389-0.903,0.789-0.614,1.067c0.291,0.279,0.44,0.243,0.476,0.4s0.07,0.328,0.116,0.389
				c0.046,0.062,0.323,0.279,0.463-0.012c0.141-0.292,0.162-0.498,0.324-0.449c0.162,0.048,0.196,0.158,0.114,0.376
				c-0.081,0.22-0.138,0.559-0.416,0.546c-0.277-0.012-0.578-0.182-0.672-0.145c-0.092,0.036-0.148,0.121-0.254,0.206
				c-0.104,0.085-0.429,0.484-0.649,0.546c-0.219,0.061-0.485,0.011-0.335,0.193c0.15,0.182,0.37,0.583,0.162,0.57
				c-0.208-0.012-0.556-0.048-0.579,0.158s-0.115,0.328-0.069,0.473c0.046,0.146,0.197,0.426,0.381,0.328
				c0.188-0.098,0.546-0.193,0.638-0.413c0.093-0.219,0.198-0.46,0.429-0.448s0.788,0.315,0.752,0.425
				c-0.034,0.108-0.149,0.364-0.011,0.279c0.139-0.086,0.254-0.183,0.335-0.219c0.081-0.037,0.188,0.122,0.221,0.183
				c0.034,0.062,0.267,0.182,0.312-0.014c0.047-0.193,0.093-0.047,0.231,0.014c0.14,0.062,0.556,0.108,0.612,0.157
				c0.06,0.049,0.187,0.194,0.024,0.389c-0.162,0.193-0.348,0.268-0.614,0.122c-0.267-0.146-0.557,0.122-0.855-0.025
				c-0.303-0.145-0.163-0.351-0.522-0.497c-0.357-0.146-1.169,0.036-1.425,0.109c-0.255,0.072-0.266,0.097-0.37,0.218
				c-0.104,0.122-0.787,0.91-0.787,1.359c0,0.448,0.254,1.664,1.076,1.542c0.823-0.122,1.321-0.05,1.229,0.192
				c-0.094,0.244-0.046,0.305,0.104,0.583c0.15,0.279,0.499,2.137,0.556,2.439c0.06,0.304-0.045,0.691,0.337,0.631
				c0.384-0.061,0.788-0.157,0.949-0.509c0.163-0.353,0.188-0.752,0.396-0.958c0.209-0.207,0.463-0.207,0.485-0.498
				c0.022-0.292-0.058-0.983,0.081-1.143c0.14-0.156,0.787-0.886,0.856-1.177c0.07-0.291,0.162-0.364-0.104-0.364
				c-0.266,0-0.718-0.035-0.847-0.278C18.302,16.705,18,16.244,18,16.135c0-0.108,0.186-0.097,0.277,0.133
				c0.094,0.23,0.416,0.924,0.787,0.776c0.371-0.146,0.893-0.315,0.904-0.546c0.011-0.23-0.162-0.497-0.348-0.484
				c-0.187,0.013-0.383-0.122-0.383-0.255s0.034-0.084,0.255,0c0.221,0.085,0.289,0.23,0.626,0.255
				c0.336,0.024,0.718,0.352,0.902,0.498c0.186,0.146,0.509,1.142,0.591,1.238c0.08,0.098,0.176,0.098,0.256-0.097
				c0.081-0.195,0.428-0.813,0.626-0.984c0.196-0.17,0.208-0.4,0.322-0.254c0.116,0.146,0.614,0.509,0.649,0.728
				s-0.023,0.692,0.081,0.546c0.104-0.146,0.186-0.448,0.276-0.314c0.094,0.134,0.094,0.34,0.313,0.182
				c0.221-0.156,0.603-0.218,0.395-0.558s-0.069-0.546,0.06-0.559c0.127-0.013,0.996-0.17,1.019-0.644
				c0.023-0.473-0.302-0.728-0.148-0.971c0.148-0.243,0.369-0.461,0.416-0.316c0.046,0.146-0.116,0.619,0.092,0.546
				c0.209-0.072,0.452-0.072,0.452-0.219s-0.047-0.511,0.047-0.607c0.093-0.097,0.775-0.739,0.856-0.994
				c0.081-0.256,0.232-0.474,0.104-0.667c-0.128-0.194-0.347-0.135-0.174-0.376c0.174-0.243,0.464-0.468,0.684-0.486
				c0.703-0.062,0.505,0.808,0.517,1.002c0.013,0.194,0.013,0.68,0.116,0.437c0.104-0.242,0.225-0.541,0.434-0.747
				c0.209-0.205,0.324-0.34,0.337-0.521c0.012-0.182,0.021-0.243,0.22-0.34c0.197-0.098,1.065-0.438,1.146-0.667
				c0.081-0.23-0.104-0.438,0.104-0.424c0.208,0.011,0.405,0.241,0.51,0.12c0.104-0.12,0.336-0.339,0.324-0.461
				C31.631,9.979,31.295,9.7,31.154,9.603z"/>
		</g>
		<g>
			<path d="M27.415,13.68c-0.07,0.159-0.104,0.184-0.208,0.512c-0.106,0.326-0.071,0.241-0.176,0.447
				c-0.104,0.207-0.276,0.23-0.45,0.365c-0.176,0.134-0.222,0.4-0.222,0.4c-0.15,0.206,0.614-0.292,0.88-0.449
				c0.267-0.158,0.198-0.34,0.221-0.595c0.023-0.256,0.095-0.292,0.208-0.401c0.115-0.109,0.023-0.328-0.032-0.485
				C27.576,13.317,27.483,13.524,27.415,13.68z"/>
		</g>
		<g>
			<path d="M25.04,19.192c0.081-0.062,0.022-0.194,0.149-0.171c0.128,0.024,0.243,0.099,0.396,0.014
				c0.149-0.086,0.277-0.05,0.254-0.195c-0.022-0.145,0-0.339-0.034-0.46c-0.035-0.122-0.243-0.159-0.394-0.024
				s-0.358,0.341-0.358,0.267c0-0.072,0.091-0.267,0.045-0.388c-0.045-0.121,0.023-0.23-0.208-0.134
				c-0.232,0.098-0.359,0.073-0.44,0.207c-0.08,0.135-0.174,0.364-0.312,0.219s-0.545-0.448-0.545-0.448
				c-0.033-0.037-0.496-0.414-0.334-0.158c0.161,0.255,0.405,0.692,0.521,0.849c0.114,0.158,0.242,0.341,0.382,0.256
				c0.139-0.086,0.162-0.109,0.348,0C24.691,19.131,24.959,19.253,25.04,19.192z"/>
		</g>
		<g>
			<path d="M27.878,18.851c-0.222-0.097-0.129-0.182-0.396-0.229s-0.485,0-0.557-0.048c-0.07-0.049-0.416-0.17-0.37,0
				c0.047,0.171,0.359,0.218,0.44,0.266c0.081,0.049-0.116,0.159,0.033,0.243c0.15,0.084,0.256,0.243,0.452,0.194
				c0.197-0.05,0.267,0.061,0.427,0.085c0.163,0.023,0.325-0.024,0.258-0.099c-0.07-0.071-0.115-0.17-0.104-0.254
				C28.073,18.924,28.097,18.949,27.878,18.851z"/>
		</g>
		<g>
			<path d="M27.762,19.932c-0.081-0.243-0.278-0.69-0.323-0.473c-0.047,0.218-0.359,0.375-0.477,0.363
				c-0.106-0.012-0.046-0.121-0.046-0.22c0-0.097-0.061-0.193-0.325-0.12c-0.268,0.072-0.323,0.327-0.395,0.304
				c-0.068-0.024-0.255-0.073-0.369,0.061c-0.116,0.134-0.222,0.389-0.359,0.438c-0.14,0.049-0.604,0.108-0.604,0.304
				c0,0.194,0.117,0.485,0.105,0.643c-0.012,0.158-0.223,0.521,0.058,0.632c0.162,0.063,0.277,0.072,0.465-0.024
				c0.185-0.097,0.983-0.352,1.089-0.268c0.104,0.085,0.272,0.284,0.347,0.327c0.147,0.088,0.187,0.291,0.384,0.34
				c0.194,0.049,0.347,0.072,0.427,0.072c0.082,0,0.37-0.097,0.44-0.267c0.07-0.171,0.197-0.571,0.255-0.765
				c0.061-0.194,0.115-0.412-0.058-0.583C28.203,20.527,27.843,20.175,27.762,19.932z"/>
		</g>
	</g>
</g>
</svg>
