<svg id="Layer_1" enable-background="new 0 0 512.002 512.002" height="512" viewBox="0 0 512.002 512.002" width="512" xmlns="http://www.w3.org/2000/svg"><g fill='#fff'><g><path d="m476.003 328.125v-84.374c0-24.115-12.736-43.646-34.069-52.243-11.486-4.629-23.375-5.069-32.69-1.665-4.246-5.4-9.848-9.924-16.579-13.218-12.824-6.275-27.316-7.134-38.888-2.802-6.028-7.121-14.466-12.423-24.629-15.051-8.507-2.2-16.863-2.188-24.043-.278l-1.668-76.708c-.484-22.309-17.509-39.783-38.758-39.783-21.373 0-38.761 17.944-38.761 40v191.485c-4.031-4.004-7.021-8.23-10.1-12.583-7.645-10.808-16.311-23.057-40.015-28.169-20.076-4.328-37.367 5.621-44.936 16.698-5.986 8.762-6.483 18.645-1.329 26.438 1.521 2.298 3.3 4.586 5.184 7.008 6.172 7.935 14.625 18.801 22.903 41.524 11.53 31.65 31.445 45.931 47.446 57.406 15.434 11.068 27.093 19.439 29.821 40.223-5.213.342-9.339 4.667-9.339 9.967v70.001c0 5.522 4.477 10 10 10h221.227c5.523 0 10-4.478 10-10v-70.001c0-5.321-4.16-9.66-9.403-9.97 1.33-12.744 4.916-25.72 8.676-39.299 4.892-17.667 9.95-35.934 9.95-54.606zm-29.223 163.877h-201.227v-50.001h55.61c5.523 0 10-4.478 10-10s-4.477-10-10-10h-46.15c-3.123-31.205-20.97-44.024-38.287-56.442-15.189-10.893-30.895-22.155-40.31-47.999-9.354-25.677-19.316-38.484-25.908-46.959-1.713-2.202-3.193-4.104-4.29-5.762-.791-1.196.959-3.825 1.161-4.121 3.941-5.768 13.763-10.686 24.206-8.431 16.091 3.47 20.79 10.113 27.903 20.169 5.675 8.022 12.588 17.793 26.428 26.169v4.126c0 5.522 4.477 10 10 10s10-4.478 10-10v-220.748c0-11.028 8.417-20 18.761-20 10.104 0 18.521 9.069 18.763 20.218l2.876 132.249c.118 5.447 4.571 9.782 9.993 9.782.074 0 .148-.001.222-.002 5.522-.12 9.9-4.693 9.78-10.216l-.741-34.078c3.242-2.623 10.556-3.895 18.569-1.82 4.662 1.205 19.875 6.512 19.875 24.178 0 5.522 4.477 10 10 10s10-4.478 10-10c0-3.588-.4-7.063-1.17-10.384 6.196-1.563 14.203-.681 21.029 2.66 5.455 2.669 14.607 9.099 14.607 22.161 0 5.522 4.477 10 10 10s10-4.478 10-10c0-2.937-.281-5.809-.827-8.593 4.261-1.01 10.454-.658 16.803 1.899 6.478 2.611 21.545 11.12 21.545 33.693v84.374c0 15.954-4.481 32.137-9.225 49.27-4.014 14.498-8.133 29.406-9.483 44.606h-46.131c-5.523 0-10 4.478-10 10s4.477 10 10 10h55.617v50.002z"/><path d="m96.813 156.282h-26.671l61.07-61.07 61.07-61.07v26.671c0 5.522 4.477 10 10 10s10-4.478 10-10v-50.813c0-5.522-4.477-10-10-10h-50.813c-5.523 0-10 4.478-10 10s4.477 10 10 10h26.67l-61.069 61.069-61.07 61.07v-26.671c0-5.522-4.477-10-10-10s-10 4.478-10 10v50.813c0 5.522 4.477 10 10 10h50.813c5.523 0 10-4.478 10-10s-4.477-9.999-10-9.999z"/><path d="m346.166 422.001h-.007c-5.523 0-9.996 4.478-9.996 10s4.48 10 10.003 10 10-4.478 10-10-4.477-10-10-10z"/></g></g></svg>