<svg enable-background="new 0 0 510.866 510.866" height="512" viewBox="0 0 510.866 510.866" width="512" xmlns="http://www.w3.org/2000/svg"><path d="m402.85 195.704c-2.074-9-9.787-15.383-19.005-16.798-.029-.067-.051-.135-.082-.201l-7.948-16.88c-6.259-14.125-15.804-26.855-27.609-36.818 0 0-5.218-4.385-5.362-4.49-.095-.891-.239-1.784-.445-2.677-1.501-6.514-5.704-11.941-11.835-15.281-5.831-3.178-12.756-4.072-19.501-2.518-4.909 1.131-9.211 3.454-12.62 6.547-3.548-4.436-8.995-7.29-15.103-7.29h-7.113v-8.445c4.762-2.358 8.18-7.104 8.579-12.706l2.513-35.173c.296-4.132-2.815-7.72-6.946-8.016-4.124-.303-7.721 2.815-8.015 6.946l-2.514 35.174c-.015.208-.189.371-.398.371h-29.246c-.209 0-.384-.163-.399-.372l-3.047-42.659c-.561-7.848 3.96-15.111 11.249-18.074 4.397-1.786 9.242-1.788 13.641 0 1.208.491 2.364 1.112 3.436 1.847 3.417 2.345 8.084 1.473 10.428-1.943 2.343-3.416 1.473-8.085-1.943-10.427-1.958-1.343-4.068-2.478-6.272-3.373-8.042-3.268-16.897-3.268-24.937 0-13.324 5.415-21.588 18.692-20.563 33.038l3.047 42.658c.4 5.603 3.817 10.349 8.58 12.707v8.449h-7.114c-5.821 0-11.037 2.596-14.586 6.678-3.29-2.786-7.337-4.881-11.915-5.936-6.744-1.554-13.67-.66-19.502 2.518-6.13 3.34-10.333 8.768-11.834 15.281-.244 1.057-.403 2.12-.494 3.183-.724.29-5.313 3.984-5.313 3.984-11.805 9.963-21.351 22.693-27.61 36.818l-7.948 16.879c-.031.067-.054.135-.083.202-9.22 1.415-16.93 7.796-19.004 16.797-1.386 6.016-.093 12.216 3.641 17.46.826 1.16 1.76 2.232 2.771 3.226-.167.469-.29.962-.362 1.474l-.788 5.566c-2.166 15.297-.803 31.149 3.94 45.852l6.122 20.584c.301 1.01.812 1.893 1.448 2.653-2.015 5.071-2.666 11.137-1.551 17.492 2.433 13.876 12.296 23.623 23.229 23.623 1.059 0 2.13-.091 3.203-.28 12.152-2.131 19.582-15.723 16.913-30.944-1.052-5.997-3.495-11.218-6.809-15.22.384-.796.638-1.67.72-2.602 1.333-15.112 3.278-52.272-7.241-72.14 1.033-1.789 1.807-3.73 2.283-5.794l-.001.001c.326-1.414.499-2.839.532-4.259.581-.335 1.13-.746 1.623-1.249l17.63-18.005c11.339-9.469 20.663-21.518 26.978-34.871.153-.323.271-.652.375-.984 2.074-.572 4.046-1.38 5.878-2.402l10.869 56.559-15.124 28.626c-.186.354-.345.721-.473 1.1-.692 2.047-1.044 4.177-1.044 6.333v17.761c-.415 9.342-11.118 49.354-10.265 74.908-3.934 2.578-7.031 6.313-8.654 10.943-1.463 4.174-1.538 8.528-.467 12.62-.774.836-3.995 11.028-3.995 11.028-1.828 6.397-3.526 13.331-5.047 20.611-.848 4.055 1.752 8.028 5.807 8.876.518.108 1.034.16 1.543.16 3.476 0 6.594-2.43 7.333-5.967 1.448-6.928 3.059-13.508 4.788-19.559l.2-.7c1.758 1.143 3.687 2.104 5.768 2.833 2.938 1.03 5.924 1.518 8.838 1.518.46 0 .915-.025 1.371-.049l-.774 4.9c-3.843 24.337-11.835 53.032-20.312 73.304l-7.002-1.653c.174-9.61.945-20.261 2.279-31.18.502-4.111-2.423-7.852-6.535-8.354-4.116-.496-7.852 2.424-8.355 6.535-1.467 12.003-2.293 23.755-2.418 34.287-.204.29-.401.586-.566.91-2.869 5.63-16.821 34.491-9.733 49.791 2.24 4.835 6.214 8.049 11.492 9.295 1.538.363 3.059.543 4.553.543 3.953 0 7.712-1.263 11.054-3.741 6.614-4.907 11.35-14.269 14.478-28.621 1.698-7.789 2.387-14.771 2.607-17.438 9.779-21.781 18.902-53.645 23.275-81.337l1.849-11.71c.131-.829.114-1.645-.019-2.429 2.203-2.215 3.949-4.895 5.032-7.983 2.181-6.221 1.281-12.838-1.909-18.397 9.587-18.806 16.636-45.552 19.454-63.808h16.349c2.818 18.252 9.864 44.991 19.447 63.794-.055.096-.121.185-.175.281-3.199 5.743-3.813 12.181-1.728 18.129 1.018 2.904 2.62 5.491 4.693 7.675-.003.409.018.822.084 1.24l2.085 13.207c4.372 27.691 13.495 59.555 23.275 81.337.22 2.667.908 9.648 2.606 17.438 3.129 14.352 7.864 23.714 14.48 28.621 3.341 2.479 7.101 3.741 11.054 3.741 1.494 0 3.016-.18 4.554-.543 5.277-1.246 9.251-4.461 11.491-9.295 7.088-15.3-6.864-44.161-9.733-49.792-.167-.328-.366-.63-.574-.923-.311-26.877-5.071-59.523-12.509-85.549 0 0-3.209-10.169-3.971-11 1.101-4.189.951-8.535-.491-12.647-1.594-4.547-4.608-8.324-8.654-10.967.894-26.858-11.871-71.365-13.858-78.315v-14.331c0-2.154-.351-4.284-1.042-6.33-.129-.379-.287-.748-.474-1.102l-15.125-28.628 10.991-57.189c2.13 1.33 4.485 2.347 6.978 3.034.104.333.222.663.376.987 6.315 13.352 15.639 25.4 26.977 34.868l17.631 18.005c.495.505 1.046.918 1.63 1.253.029 1.411.195 2.833.523 4.253.476 2.063 1.251 4.004 2.283 5.794-10.697 20.204-8.564 57.906-7.14 73.236.058.624.198 1.219.396 1.785-3.2 3.963-5.557 9.082-6.585 14.941-2.668 15.221 4.761 28.813 16.913 30.944 1.074.189 2.144.28 3.203.28 10.932 0 20.796-9.747 23.229-23.623 1.069-6.098.496-12.211-1.586-17.451.652-.769 1.176-1.666 1.482-2.695l6.122-20.584c4.742-14.703 6.104-30.555 3.939-45.851l-.788-5.566c-.073-.512-.195-1.005-.362-1.474 1.012-.994 1.945-2.066 2.772-3.226 3.727-5.242 5.02-11.442 3.633-17.458zm-228.112 299.375c-1.048.776-1.921.952-3.221.644-.873-.206-1.083-.476-1.327-1-2.35-5.065 1.533-19.175 6.973-31.392l8.104 1.913c-1.491 11.639-5.152 25.852-10.529 29.835zm195.981-216.012c-1.939-.34-3.865-.361-5.744-.099-1.446-20.031-.845-43.471 4.601-56.72 2.736.994 5.644 1.51 8.603 1.51 1.413 0 2.838-.121 4.258-.353l.301 2.128c1.852 13.083.681 26.645-3.388 39.218-.018.057-.036.114-.053.171l-4.566 15.353c-1.284-.552-2.625-.965-4.012-1.208zm17.514-79.993c.553 2.396-.54 4.405-1.241 5.389-1.407 1.976-3.617 3.395-6.223 3.995-2.607.602-5.214.292-7.343-.869-1.061-.578-2.924-1.906-3.476-4.302-.909-3.945 2.509-8.243 7.463-9.385.846-.195 1.691-.288 2.518-.288 4.011 0 7.548 2.188 8.302 5.46zm-139.816-106.623h12.809v6.849h-12.809zm-26.456 26.191c0-2.394 1.948-4.343 4.343-4.343h57.036c2.396 0 4.344 1.948 4.344 4.343v16.645c0 .459-11.853 61.589-11.853 61.589h-42.017s-11.852-61.13-11.852-61.589v-16.645zm-76.074 160.322c-1.877-.26-3.801-.238-5.74.103-1.406.247-2.746.653-4.017 1.191l-4.561-15.336c-.017-.057-.035-.114-.053-.171-4.068-12.572-5.24-26.133-3.388-39.218l.301-2.128c1.421.232 2.845.353 4.258.353 2.96 0 5.87-.516 8.607-1.511 6.513 15.693 5.528 43.505 4.593 56.717zm-23.255-79.891c.754-3.271 4.29-5.458 8.302-5.458.825 0 1.671.093 2.517.288 2.605.601 4.816 2.02 6.223 3.996.701.984 1.794 2.992 1.242 5.389 0 0-.001 0-.001.001-.552 2.396-2.414 3.724-3.475 4.302-2.129 1.161-4.738 1.471-7.343.869-2.606-.6-4.815-2.019-6.223-3.995-.701-.987-1.794-2.995-1.242-5.392zm24.444 119.506c-3.26.571-7.826-4.081-9.067-11.16s1.473-13.008 4.729-13.579c.181-.032.365-.047.553-.047 3.2 0 7.341 4.521 8.514 11.207 1.241 7.08-1.474 13.009-4.729 13.579zm18.365-146.733c-.201.166-.393.343-.575.529l-14.547 14.857c-2.177-2.467-4.853-4.469-7.859-5.932l6.198-13.164c.025-.054.05-.108.074-.163 5.33-12.059 13.467-22.929 23.532-31.442.053.076.101.153.155.229 3.335 4.683 8.159 8.179 13.769 10.044-5.282 9.524-12.375 18.107-20.747 25.042zm40.13-45.454c-1.162 5.041-7.15 7.979-13.35 6.55-3.167-.729-5.86-2.464-7.583-4.884-1.526-2.142-2.078-4.575-1.553-6.849.524-2.274 2.085-4.219 4.394-5.478 1.742-.949 3.74-1.434 5.818-1.434 1.033 0 2.086.12 3.138.362 6.199 1.429 10.297 6.692 9.136 11.733zm-.823 230.472c-5.164-1.811-8.186-6.649-6.735-10.786 1.077-3.072 4.321-4.906 8.034-4.906 1.288 0 2.632.221 3.961.686 5.164 1.811 8.186 6.649 6.735 10.786-1.45 4.137-6.832 6.029-11.995 4.22zm12.671-28.165c-.791-.367-1.607-.701-2.449-.996-2.497-.875-5.031-1.355-7.525-1.48-.008-18.374 4.519-39.324 7.903-52.405 2.46 1.021 5.163 1.585 7.999 1.585h9.912c-3.004 18.175-9.151 38.85-15.84 53.296zm80.028-56.536c3.464 13.139 8.345 35.052 8.342 54.065-2.524.132-5.058.611-7.523 1.475-.838.294-1.651.633-2.447 1.001-6.689-14.446-12.837-35.124-15.842-53.302h6.32c4.111 0 7.934-1.198 11.15-3.239zm3.238 84.642c-1.192-.487-3.321-1.676-4.191-4.16 0 0 0 0-.001 0-.871-2.485.05-4.743.677-5.867 1.247-2.239 3.398-3.986 6.059-4.918 1.303-.457 2.632-.684 3.928-.684 1.351 0 2.666.248 3.876.743 1.192.487 3.321 1.676 4.192 4.161s-.05 4.743-.677 5.867c-1.247 2.239-3.398 3.986-6.059 4.919-2.66.93-5.433.91-7.804-.061zm23.643 93.887c-8.478-20.273-16.469-48.968-20.312-73.304l-.77-4.876c.438.022.876.035 1.316.035 2.973 0 5.979-.509 8.89-1.529 2.06-.722 3.985-1.693 5.765-2.847l.204.712c6.854 23.991 11.454 55.121 11.906 80.155zm18.719 44.031c-.243.525-.454.794-1.326 1-1.301.307-2.173.132-3.222-.644-5.377-3.984-9.038-18.196-10.529-29.835l8.104-1.913c5.44 12.218 9.322 26.328 6.973 31.392zm-51.179-257.22v17.762c0 2.833-2.499 5.138-5.57 5.138h-62.951c-3.072 0-5.571-2.305-5.571-5.138v-17.761c0-.364.042-.725.125-1.08l12.969-24.547h47.905l12.968 24.546c.083.354.125.716.125 1.08zm13.427-111.112c-1.16-5.041 2.939-10.304 9.138-11.732 3.168-.73 6.347-.35 8.955 1.072 2.31 1.259 3.871 3.204 4.395 5.479 1.162 5.041-2.937 10.304-9.137 11.732-6.199 1.429-12.189-1.51-13.351-6.551zm40.704 45.983c-.182-.186-.374-.363-.574-.529-8.371-6.934-15.462-15.514-20.744-25.037 5.863-1.955 10.686-5.662 13.906-10.29 10.071 8.515 18.214 19.391 23.547 31.456.023.055.049.109.074.163l6.191 13.148c-3.057 1.494-5.708 3.54-7.841 5.958zm26.858 135.046c-1.24 7.078-5.797 11.736-9.067 11.16-3.255-.571-5.969-6.499-4.728-13.579 1.172-6.687 5.313-11.207 8.513-11.207.189 0 .373.016.554.047 1.934.339 3.188 2.525 3.637 3.449 1.339 2.757 1.737 6.449 1.091 10.13z" fill="#000"/></svg>